# xmcd CD database file
#
# Track frame offsets:
#	150
#	12362
#	24990
#	37282
#	55882
#	68732
#	81382
#	93682
#	105307
#	127107
#	140470
#	150532
#	164632
#	174832
#	191532
#	203957
#	222382
#	233007
#	245057
#	258605
#
# Disc length: 3613 seconds
#
# Revision: 1
# Processed by: cddbd v1.4PL0 Copyright (c) Steve Scherf et al.
# Submitted via: CDex 1.50
#
DISCID=220e1b14
DTITLE=Various Artist - Country Gals and Country Gentlemen Disc 2
DYEAR=1900
DGENRE=Country
TTITLE0=Tammy Wynette - Stand By You Man
TTITLE1=Charley Pride - Mountain of Love
TTITLE2=Donna Fargo - Funny Face
TTITLE3=Don Williams - I Believe In You
TTITLE4=Patsy Cline - I Fall To Pieces
TTITLE5=Conway Twitty - I've Already Loved You In My Mind
TTITLE6=Crystal Gayle - I've Cried (The Blue Right Out of My Eyes)
TTITLE7=John Anderson - If It Ain't Broke, Don't Fix It
TTITLE8=Tanya Tucker - Texas (When I Die)
TTITLE9=Kenny Rogers - Ruby, Don't Take Your Love To Town
TTITLE10=Loretta Lynn - You Ain't Woman Enough
TTITLE11=Glen Cambell and Steve Wariner - The Hand That Rocks The Cradle
TTITLE12=Kitty Wells - I Can't Stop Loving You
TTITLE13=Lee Greenwood - Ring On Her Finger, Time On Her Hands
TTITLE14=Brenda Lee - All Alone Am I
TTITLE15=Steve Wariner - Some Fools Never Learn
TTITLE16=Barbara Mandrell - Sleeping Single In A Double Bed
TTITLE17=Oak Ridge Boys - Elvira
TTITLE18=Sylvia - Fallin' In Love
TTITLE19=Merle Haggard - The Roots of My Raising
EXTD=
EXTT0=
EXTT1=
EXTT2=
EXTT3=
EXTT4=
EXTT5=
EXTT6=
EXTT7=
EXTT8=
EXTT9=
EXTT10=
EXTT11=
EXTT12=
EXTT13=
EXTT14=
EXTT15=
EXTT16=
EXTT17=
EXTT18=
EXTT19=
PLAYORDER=
